<?xml version="1.0" standalone="no"?>
<!DOCTYPE svg PUBLIC "-//W3C//DTD SVG 20010904//EN"
 "http://www.w3.org/TR/2001/REC-SVG-20010904/DTD/svg10.dtd">
<svg version="1.0" xmlns="http://www.w3.org/2000/svg"
 width="500.000000pt" height="500.000000pt" viewBox="0 0 500.000000 500.000000"
 preserveAspectRatio="xMidYMid meet">

<g transform="translate(0.000000,500.000000) scale(0.100000,-0.100000)"
fill="#000000" stroke="none">
<path d="M2495 3113 c-94 -344 -145 -527 -149 -531 -3 -2 -92 3 -198 11 -106
9 -193 15 -194 14 -2 -1 73 -52 167 -112 93 -61 169 -116 169 -123 0 -8 -63
-240 -140 -517 -108 -388 -138 -509 -131 -527 35 -91 215 -138 527 -138 293 0
482 50 514 136 7 17 -25 146 -130 531 -77 279 -136 510 -132 514 59 50 282
252 282 255 0 3 -3 3 -7 1 -25 -14 -326 -78 -332 -71 -4 5 -50 163 -101 352
-52 188 -97 342 -100 342 -4 0 -24 -62 -45 -137z"/>
<path d="M2560 1114 c-35 -14 -40 -37 -40 -171 0 -73 -2 -133 -5 -133 -3 0
-19 10 -35 21 -37 28 -120 29 -173 4 -52 -24 -110 -83 -137 -141 -32 -64 -33
-159 -3 -225 25 -57 92 -125 141 -146 56 -24 131 -21 175 5 31 18 39 19 43 7
8 -21 68 -37 109 -29 67 12 66 9 63 417 -2 244 -7 370 -14 377 -12 12 -102 22
-124 14z m-75 -469 c27 -26 34 -80 14 -116 -16 -30 -66 -48 -103 -38 -43 12
-66 44 -66 91 0 54 34 88 90 88 30 0 47 -6 65 -25z"/>
<path d="M1740 857 c-101 -28 -167 -95 -196 -196 -44 -149 39 -314 177 -355
99 -30 262 -16 307 26 28 28 29 77 1 113 -19 23 -27 26 -58 21 -20 -4 -67 -9
-106 -12 -59 -4 -75 -2 -102 15 -18 12 -33 28 -33 36 0 13 22 15 140 15 139 0
140 0 171 28 25 23 33 38 36 79 9 91 -36 172 -119 214 -50 26 -157 33 -218 16z
m144 -173 c19 -18 21 -45 4 -62 -7 -7 -42 -12 -85 -12 -65 0 -73 2 -73 19 0
11 14 31 31 45 36 30 98 35 123 10z"/>
<path d="M2977 856 c-67 -19 -126 -64 -164 -126 -94 -155 -18 -375 148 -424
98 -29 264 -16 308 25 28 26 28 78 0 114 -19 23 -27 26 -58 21 -20 -4 -67 -9
-106 -12 -59 -4 -75 -2 -102 15 -18 12 -33 28 -33 36 0 13 22 15 140 15 139 0
140 0 171 28 25 23 33 38 36 79 9 91 -36 172 -119 214 -51 26 -157 33 -221 15z
m144 -166 c21 -12 25 -50 7 -68 -7 -7 -42 -12 -85 -12 -65 0 -73 2 -73 19 0
11 14 31 31 45 33 28 85 34 120 16z"/>
<path d="M1103 850 c-12 -5 -26 -18 -32 -29 -12 -21 -16 -438 -5 -478 8 -28
63 -47 111 -40 61 10 63 15 63 171 0 154 8 182 53 204 21 10 36 10 68 2 55
-15 85 -6 104 30 19 38 19 104 0 124 -38 37 -136 32 -191 -9 -24 -18 -34 -22
-34 -12 0 8 -6 20 -14 26 -18 15 -96 23 -123 11z"/>
<path d="M3590 851 c-82 -17 -165 -94 -194 -178 -53 -155 40 -329 194 -364 45
-10 119 6 147 32 l21 21 7 -21 c7 -23 40 -35 99 -35 28 0 43 6 57 23 17 21 19
42 19 245 0 155 -4 228 -13 245 -24 48 -138 52 -159 6 l-10 -23 -36 24 c-19
13 -40 24 -46 24 -6 0 -20 2 -31 4 -11 2 -36 1 -55 -3z m135 -213 c32 -38 32
-78 -1 -117 -36 -43 -93 -44 -135 -2 -37 37 -38 79 -4 120 41 48 99 48 140 -1z"/>
</g>
</svg>
