<?xml version="1.0" encoding="UTF-8"?>
<svg version="1.1" xmlns="http://www.w3.org/2000/svg" width="500" height="500">
<path d="M0 0 C0.66 0 1.32 0 2 0 C2.35371925 1.28666313 2.35371925 1.28666313 2.71458435 2.59931946 C4.93560318 10.67777272 7.15739713 18.75601231 9.38006496 26.83401203 C10.52276738 30.98712388 11.66516849 35.14031811 12.80688477 39.29370117 C13.90843742 43.3009322 15.01077663 47.30794609 16.11366463 51.3148098 C16.53457806 52.8445583 16.95520663 54.37438521 17.37554741 55.90429115 C17.96372536 58.04488136 18.5529098 60.18519212 19.14233398 62.32543945 C19.47764633 63.54455521 19.81295868 64.76367096 20.15843201 66.01972961 C20.72525398 68.02703356 21.34041253 70.02123759 22 72 C23.43049683 71.63648438 23.43049683 71.63648438 24.88989258 71.265625 C28.42805419 70.36751038 31.96738148 69.47406716 35.50708008 68.58203125 C37.03897796 68.19528503 38.57055668 67.80727236 40.10180664 67.41796875 C42.30272078 66.85864406 44.50474211 66.30388248 46.70703125 65.75 C47.39150833 65.57500977 48.07598541 65.40001953 48.78120422 65.21972656 C51.60875429 64.51258894 54.07154001 64 57 64 C57 66 57 66 55.6015625 67.41015625 C54.94929688 67.95542969 54.29703125 68.50070313 53.625 69.0625 C50.37058933 71.82817409 47.16586167 74.63308192 44 77.5 C40.86544464 80.32544666 37.72650936 83.14504403 34.5625 85.9375 C33.94503906 86.48277344 33.32757813 87.02804687 32.69140625 87.58984375 C31 89 31 89 28 91 C29.49696605 100.99373701 32.23530336 110.61128202 34.9375 120.328125 C35.42350492 122.08914086 35.90909328 123.85027173 36.39428711 125.61151123 C37.66497855 130.21960797 38.94143994 134.8260868 40.21911621 139.43225098 C41.51692615 144.11528158 42.808913 148.79991792 44.1015625 153.484375 C45.99321207 160.33575962 47.88667868 167.18663676 49.78515625 174.03613281 C49.98053986 174.74174347 50.17592346 175.44735413 50.37722778 176.17434692 C51.26685338 179.38163925 52.17130373 182.58203181 53.11108398 185.77508545 C54.5304484 190.92442337 54.89660496 194.33962045 52.3125 199.125 C43.55715833 208.29609812 25.52360185 209.96051292 13.44178772 210.35940552 C9.68924386 210.42564165 5.94027292 210.41422811 2.1875 210.375 C1.00885376 210.36851944 1.00885376 210.36851944 -0.19360352 210.36190796 C-17.44285671 210.25080201 -35.63049857 210.08983755 -50.25 199.6875 C-52.95221889 195.53766384 -52.45778025 191.34496093 -51.53897095 186.63839722 C-50.87729498 183.97982924 -50.14890545 181.34860983 -49.39453125 178.71484375 C-49.11869705 177.72036224 -48.84286285 176.72588074 -48.55867004 175.70126343 C-47.65283578 172.44392289 -46.73272471 169.19080137 -45.8125 165.9375 C-45.18112761 163.67695586 -44.55076917 161.41612829 -43.92138672 159.1550293 C-42.61578811 154.46946496 -41.30481547 149.78545385 -39.98974609 145.10253906 C-38.03434941 138.13303799 -36.10145698 131.15745199 -34.17578125 124.1796875 C-33.87418594 123.08686966 -33.57259064 121.99405182 -33.26185608 120.86811829 C-32.67095501 118.72664161 -32.08011801 116.58514725 -31.48934937 114.44363403 C-30.11298628 109.45771345 -28.73245365 104.47294933 -27.3515625 99.48828125 C-26.9916497 98.18895157 -26.9916497 98.18895157 -26.62446594 96.8633728 C-26.08304266 94.90889709 -25.54153262 92.95444542 -25 91 C-28.3223767 88.27356363 -31.70128893 85.80359186 -35.30859375 83.46875 C-36.30310547 82.82292969 -37.29761719 82.17710937 -38.32226562 81.51171875 C-39.86430664 80.51591797 -39.86430664 80.51591797 -41.4375 79.5 C-44.43587652 77.55643309 -47.43389455 75.61236069 -50.42919922 73.6640625 C-51.96587277 72.66938378 -53.50754013 71.68226086 -55.05908203 70.7109375 C-56.40569227 69.85720163 -57.7105226 68.93780174 -59 68 C-59 67.34 -59 66.68 -59 66 C-45.47 66.99 -31.94 67.98 -18 69 C-17.67 66.36 -17.34 63.72 -17 61 C-16.49051675 58.81881829 -15.93236923 56.64842393 -15.32592773 54.4921875 C-14.98565048 53.27152588 -14.64537323 52.05086426 -14.29478455 50.79321289 C-13.92451157 49.48710678 -13.55411174 48.18103662 -13.18359375 46.875 C-12.8033781 45.51893911 -12.42367137 44.16273544 -12.04444885 42.80639648 C-11.05162 39.26062714 -10.05195035 35.71682293 -9.05078125 32.17340088 C-8.02771435 28.54776502 -7.01121516 24.92028922 -5.99414062 21.29296875 C-4.00247067 14.19350875 -2.00356094 7.09611452 0 0 Z " fill="#7D27FD" transform="translate(253,172)"/>
<path d="M0 0 C9.21136381 5.65863885 14.60359039 13.05067 17.875 23.38671875 C19.68175707 33.27531389 17.9916276 42.40123341 12.66015625 50.88671875 C6.70739008 58.99803301 0.2129145 63.56648909 -9.76171875 65.375 C-19.66511765 66.38379343 -28.15371921 65.21932432 -36.45703125 59.52734375 C-43.22910675 53.95806972 -48.73365827 47.24521187 -50.06640625 38.33886719 C-50.96158309 28.44268723 -50.15002106 19.33352423 -44.11328125 11.13671875 C-33.24075516 -1.84859079 -16.03549684 -7.76171948 0 0 Z " fill="#FD8912" transform="translate(345.76171875,250.625)"/>
<path d="M0 0 C7.35882958 6.2204471 12.19143656 12.6379566 13.80859375 22.35546875 C14.62722108 32.60405323 13.09439644 41.46847088 6.46875 49.54296875 C-1.00393207 57.70137929 -8.89666151 61.88038632 -20.07421875 62.44921875 C-29.21447451 62.17432384 -37.30413604 59.43649106 -44.19140625 53.35546875 C-52.33951187 44.40327376 -54.61809593 36.00171345 -54.3984375 24.1171875 C-53.90280756 15.11168507 -50.43372866 8.81682002 -44.19140625 2.35546875 C-31.88409423 -8.48724952 -13.25611567 -9.94799412 0 0 Z " fill="#FD8912" transform="translate(324.19140625,130.64453125)"/>
<path d="M0 0 C8.0559323 7.52530203 11.74209094 15.2822501 12.125 26.1875 C11.87919033 36.64164052 8.3746177 44.05030612 1.18359375 51.5 C-6.37022045 58.51050042 -14.94794039 61.12045668 -25.1875 60.8125 C-35.06051358 59.52579146 -43.21759746 55.8647533 -49.5 48 C-50.42535793 46.6235623 -51.32221102 45.22747104 -52.1875 43.8125 C-52.60128906 43.18085938 -53.01507813 42.54921875 -53.44140625 41.8984375 C-57.76250769 34.09937636 -57.59305788 23.50579907 -55.4921875 14.99609375 C-54.5648323 12.75563476 -53.51513226 10.83910376 -52.1875 8.8125 C-51.76339844 8.11898437 -51.33929688 7.42546875 -50.90234375 6.7109375 C-45.76543172 -0.93004029 -38.0864777 -5.8632397 -29.125 -7.875 C-17.98716023 -8.75895554 -8.75706315 -7.13477168 0 0 Z " fill="#FD8912" transform="translate(225.1875,132.1875)"/>
<path d="M0 0 C6.53808229 7.00882422 9.02327274 14.69329586 9.25 24.1875 C9.03122685 29.84105872 8.54817987 34.49580877 5.75 39.4375 C5.12931641 40.55898437 5.12931641 40.55898437 4.49609375 41.703125 C-0.7651855 50.36201511 -7.92753938 55.26055225 -17.5625 58.125 C-28.1847621 59.36014676 -37.57391261 58.09589265 -46.25 51.4375 C-47.075 50.90125 -47.9 50.365 -48.75 49.8125 C-56.05307384 42.87457986 -59.25209584 34.08111349 -59.625 24.1875 C-59.39485413 13.61290296 -56.1076033 6.18328317 -48.73046875 -1.3984375 C-34.0209723 -14.23160448 -14.06026327 -12.64109651 0 0 Z " fill="#FD8913" transform="translate(175.25,192.5625)"/>
<path d="M0 0 C1.1446875 0.02835937 2.289375 0.05671875 3.46875 0.0859375 C5.18578125 0.10527344 5.18578125 0.10527344 6.9375 0.125 C9.96875 0.4609375 9.96875 0.4609375 12.96875 2.4609375 C14.12934317 5.94271702 14.10290056 8.67293689 14.11401367 12.34741211 C14.11737228 13.0436821 14.1207309 13.73995209 14.12419128 14.45732117 C14.1336914 16.759326 14.13564387 19.06125803 14.13671875 21.36328125 C14.13993179 22.96366913 14.14329589 24.56405671 14.14680481 26.16444397 C14.15279358 29.51938559 14.15464495 32.87430146 14.15405273 36.22924805 C14.15395108 40.52788197 14.16760769 44.82635085 14.18482494 49.12494564 C14.19594356 52.43035134 14.19797199 55.73571711 14.19744301 59.0411396 C14.19862316 60.62596773 14.20304694 62.21079689 14.21077538 63.79560661 C14.22057333 66.01221153 14.21769823 68.22845766 14.21166992 70.44506836 C14.21309494 71.70620956 14.21451996 72.96735077 14.21598816 74.26670837 C13.98189997 77.29104458 13.66394039 78.98034673 11.96875 81.4609375 C9.27768093 82.80647203 7.09709578 82.66687864 4.09375 82.7109375 C3.04445313 82.73671875 1.99515625 82.7625 0.9140625 82.7890625 C-2.33681586 82.42689568 -3.65475767 81.64225896 -6.03125 79.4609375 C-6.794375 79.9559375 -7.5575 80.4509375 -8.34375 80.9609375 C-14.18228695 83.33593558 -19.67586178 83.51437334 -25.71875 81.6171875 C-33.04212709 78.31273686 -38.57246872 73.17882341 -41.96875 65.8359375 C-44.27866613 58.51639077 -44.32070789 49.64495803 -41.40625 42.5234375 C-37.14239525 34.5435149 -31.7889576 29.28398078 -23.03125 26.4609375 C-16.56783691 25.55120777 -12.56439293 25.98490736 -7.03125 29.4609375 C-7.01666748 28.72456055 -7.00208496 27.98818359 -6.98706055 27.22949219 C-6.91253889 23.88944746 -6.81589127 20.55039769 -6.71875 17.2109375 C-6.69619141 16.05207031 -6.67363281 14.89320313 -6.65039062 13.69921875 C-6.61494141 12.58417969 -6.57949219 11.46914063 -6.54296875 10.3203125 C-6.51678467 9.29389648 -6.49060059 8.26748047 -6.46362305 7.20996094 C-5.76862399 2.79116401 -4.49611182 0.68368711 0 0 Z M-22.03125 48.4609375 C-23.91265434 50.94097049 -24.03125 52.265632 -24.03125 55.3984375 C-22.65241619 59.62111605 -20.76803066 61.13426275 -17.03125 63.4609375 C-13.3497299 63.5345679 -11.67985668 62.93424508 -8.71875 60.7734375 C-6.60487511 57.87664598 -6.10436268 56.04345881 -6.03125 52.4609375 C-7.29619985 49.53157996 -8.32520057 47.93922905 -10.96875 46.1484375 C-15.59345817 44.60686811 -18.30457824 45.71496884 -22.03125 48.4609375 Z " fill="#7D28FA" transform="translate(257.03125,387.5390625)"/>
<path d="M0 0 C6.61351677 7.15424456 9.41143047 14.87671608 9.265625 24.61328125 C8.37725441 32.70871469 4.70249111 40.36073457 -1.01171875 46.140625 C-9.06658822 52.57139655 -17.88288368 54.16256366 -28.01171875 53.140625 C-36.92105421 50.99982065 -43.74938495 45.78440508 -48.88671875 38.265625 C-53.40550125 30.29669099 -53.77737762 22.03861642 -52.01171875 13.140625 C-49.26201872 4.82041199 -44.3353751 -0.75784874 -36.8125 -5.140625 C-24.39824533 -11.20692746 -10.26363758 -9.48639123 0 0 Z " fill="#FD8912" transform="translate(375.01171875,190.859375)"/>
<path d="M0 0 C6.17685663 6.3998005 9.16725821 14.04068089 9.46484375 22.90625 C9.03230646 32.42207028 5.67315472 39.44972775 -0.97265625 46.28125 C-8.97886351 52.7459871 -17.8740729 54.30013644 -27.97265625 53.28125 C-36.80603213 51.15869781 -43.56220069 45.96034894 -48.84765625 38.65625 C-53.0730329 31.2654217 -53.95872321 21.87812457 -51.85546875 13.69140625 C-48.25658312 3.86613 -42.6189523 -1.79477526 -33.47265625 -6.53125 C-21.5547142 -10.57483748 -9.53653422 -8.30905952 0 0 Z " fill="#FD8913" transform="translate(201.97265625,262.71875)"/>
<path d="M0 0 C1.093125 0.66 2.18625 1.32 3.3125 2 C3.6425 1.01 3.9725 0.02 4.3125 -1 C7.01812743 -2.35281371 9.23143655 -2.20609362 12.25 -2.25 C13.84134766 -2.28867187 13.84134766 -2.28867187 15.46484375 -2.328125 C18.3125 -2 18.3125 -2 19.96621704 -0.78466797 C21.73246403 1.55671532 21.69270352 2.96554043 21.70068359 5.8828125 C21.71014008 6.87394043 21.71959656 7.86506836 21.7293396 8.88623047 C21.72326691 9.95502441 21.71719421 11.02381836 21.7109375 12.125 C21.71380768 13.22344238 21.71667786 14.32188477 21.71963501 15.45361328 C21.72167736 17.77702347 21.71613563 20.10045078 21.70361328 22.42382812 C21.68756278 25.98606712 21.70345698 29.54717142 21.72265625 33.109375 C21.72067385 35.36458585 21.71683024 37.61979598 21.7109375 39.875 C21.72004654 41.47819092 21.72004654 41.47819092 21.7293396 43.11376953 C21.71988312 44.10489746 21.71042664 45.09602539 21.70068359 46.1171875 C21.69829681 46.98972168 21.69591003 47.86225586 21.69345093 48.76123047 C21.23006735 51.48443959 20.51633313 52.37529563 18.3125 54 C15.5 54.36328125 15.5 54.36328125 12.3125 54.3125 C11.260625 54.30863281 10.20875 54.30476563 9.125 54.30078125 C6.3125 54 6.3125 54 3.3125 52 C3.3125 51.34 3.3125 50.68 3.3125 50 C2.405 50.66 1.4975 51.32 0.5625 52 C-4.6111615 54.93838787 -9.90962022 54.74727245 -15.6875 54 C-22.61781955 52.01487457 -28.22997277 46.98417293 -31.9765625 40.91015625 C-36.01979441 33.10002842 -37.0260913 25.10026444 -34.75 16.5 C-32.09361404 9.44554105 -26.2999086 3.16043636 -19.8125 -0.625 C-13.30538621 -3.34709939 -6.28348489 -3.11393942 0 0 Z M-14.6875 21 C-16.11412219 23.85324437 -15.99783868 25.83454549 -15.6875 29 C-13.7135809 32.41639845 -12.50211541 33.72268412 -8.75 35 C-5.08457859 35 -3.55693977 34.23178648 -0.6875 32 C1.65418764 28.48746854 1.80873677 27.13530644 1.3125 23 C-0.76579704 19.25906533 -2.01291719 18.20850741 -6.125 16.9375 C-10.42081579 17.01286519 -11.73969671 17.96549661 -14.6875 21 Z " fill="#7D28FA" transform="translate(372.6875,416)"/>
<path d="M0 0 C4.36405749 4.71818149 6.41790949 8.96568988 6.63671875 15.45703125 C6.32787292 20.3213531 5.62302601 22.95881959 2.44921875 26.64453125 C-1.07735211 29.6367732 -4.14298521 29.51389855 -8.59375 29.4921875 C-9.75712891 29.48896484 -10.92050781 29.48574219 -12.11914062 29.48242188 C-13.33408203 29.47404297 -14.54902344 29.46566406 -15.80078125 29.45703125 C-17.02732422 29.45251953 -18.25386719 29.44800781 -19.51757812 29.44335938 C-22.54952793 29.4315619 -25.58138031 29.41510046 -28.61328125 29.39453125 C-24.97710023 33.20065389 -23.15045166 34.0635827 -17.984375 34.4453125 C-14.31348074 34.36669368 -11.14807369 33.37963734 -7.61328125 32.39453125 C-4.0110943 31.97889429 -2.38433188 31.91522951 0.69921875 33.83203125 C3.12446634 37.51481463 3.72607183 41.00718066 3.38671875 45.39453125 C1.06630938 48.8751453 -1.67563735 50.17573671 -5.61328125 51.39453125 C-17.08350619 53.63302244 -29.16764243 53.5960185 -39.36328125 47.33203125 C-45.31077419 42.64996234 -49.1729464 35.20424333 -50.42578125 27.8046875 C-51.1297011 18.75638448 -49.81812044 10.94559328 -44.61328125 3.39453125 C-39.22227279 -2.82792628 -31.15244689 -6.96268604 -22.91796875 -7.640625 C-14.04314072 -7.50524627 -6.45071886 -6.41948051 0 0 Z M-27.61328125 14.39453125 C-28.79202373 16.4591044 -28.79202373 16.4591044 -29.61328125 18.39453125 C-27.13404324 18.4213822 -24.65509285 18.44129672 -22.17578125 18.45703125 C-21.46873047 18.46541016 -20.76167969 18.47378906 -20.03320312 18.48242188 C-18.22634566 18.49106713 -16.41940522 18.44673136 -14.61328125 18.39453125 C-13.31694504 17.3280801 -13.31694504 17.3280801 -13.55078125 14.83203125 C-13.57140625 14.02765625 -13.59203125 13.22328125 -13.61328125 12.39453125 C-19.32565578 9.13031723 -22.62146339 10.48789119 -27.61328125 14.39453125 Z " fill="#7C29F8" transform="translate(326.61328125,419.60546875)"/>
<path d="M0 0 C4.36405749 4.71818149 6.41790949 8.96568988 6.63671875 15.45703125 C6.32787292 20.3213531 5.62302601 22.95881959 2.44921875 26.64453125 C-1.07735211 29.6367732 -4.14298521 29.51389855 -8.59375 29.4921875 C-9.75712891 29.48896484 -10.92050781 29.48574219 -12.11914062 29.48242188 C-13.33408203 29.47404297 -14.54902344 29.46566406 -15.80078125 29.45703125 C-17.02732422 29.45251953 -18.25386719 29.44800781 -19.51757812 29.44335938 C-22.54952793 29.4315619 -25.58138031 29.41510046 -28.61328125 29.39453125 C-24.97710023 33.20065389 -23.15045166 34.0635827 -17.984375 34.4453125 C-14.31348074 34.36669368 -11.14807369 33.37963734 -7.61328125 32.39453125 C-4.0110943 31.97889429 -2.38433188 31.91522951 0.69921875 33.83203125 C3.12446634 37.51481463 3.72607183 41.00718066 3.38671875 45.39453125 C1.06630938 48.8751453 -1.67563735 50.17573671 -5.61328125 51.39453125 C-17.92532058 53.77299339 -29.45277249 53.00699272 -40.48828125 46.76953125 C-47.75185246 38.65142225 -50.99276351 30.27178477 -50.55078125 19.45703125 C-49.70440899 11.82022406 -47.05233176 5.31167126 -41.36328125 0.01953125 C-29.43383584 -9.11516339 -11.28341221 -11.22877099 0 0 Z M-27.61328125 14.39453125 C-28.79202373 16.4591044 -28.79202373 16.4591044 -29.61328125 18.39453125 C-27.13404324 18.4213822 -24.65509285 18.44129672 -22.17578125 18.45703125 C-21.46873047 18.46541016 -20.76167969 18.47378906 -20.03320312 18.48242188 C-18.22634566 18.49106713 -16.41940522 18.44673136 -14.61328125 18.39453125 C-13.31694504 17.3280801 -13.31694504 17.3280801 -13.55078125 14.83203125 C-13.57140625 14.02765625 -13.59203125 13.22328125 -13.61328125 12.39453125 C-19.32565578 9.13031723 -22.62146339 10.48789119 -27.61328125 14.39453125 Z " fill="#7C29F7" transform="translate(202.61328125,419.60546875)"/>
<path d="M0 0 C1.06444336 0.0146228 1.06444336 0.0146228 2.15039062 0.02954102 C10.69472376 0.31939592 14.72887416 2.72303803 20.5 8.8125 C25.94235429 14.94870025 26.64539944 21.14357449 26.5 29.11328125 C25.73524034 35.892557 22.77198619 41.23401292 17.8125 45.875 C11.95494929 50.33128319 6.05889869 52.03060381 -1.28515625 51.79296875 C-7.79496306 50.89946586 -14.2699809 48.17409108 -18.875 43.4375 C-24.55704972 35.60242289 -25.72795818 29.11248278 -24.875 19.4375 C-22.87447143 11.60410499 -17.96048898 5.92964828 -11.140625 1.76953125 C-7.35202597 0.22418165 -4.03005409 -0.06148025 0 0 Z " fill="#FD8913" transform="translate(251.875,40.5625)"/>
<path d="M0 0 C4.72190276 1.86568052 4.72190276 1.86568052 5.98046875 4.3828125 C6.35510987 10.0024293 6.11656246 13.5044445 2.98046875 18.3828125 C-1.38737721 21.29470981 -4.84567913 19.98145864 -9.890625 19.28125 C-13.04720128 19.08788116 -13.04720128 19.08788116 -15.18359375 20.97705078 C-17.58917904 24.12926321 -17.51719163 26.03786278 -17.5234375 29.9765625 C-17.54212891 31.25402344 -17.56082031 32.53148437 -17.58007812 33.84765625 C-17.582532 35.19270625 -17.58316481 36.53776074 -17.58203125 37.8828125 C-17.58679221 40.51911439 -17.61252383 43.15273337 -17.6484375 45.7890625 C-17.6491626 46.95759766 -17.6498877 48.12613281 -17.65063477 49.33007812 C-18.05343494 52.66337616 -18.62757952 54.05885178 -21.01953125 56.3828125 C-24.05078125 56.87890625 -24.05078125 56.87890625 -27.51953125 56.8203125 C-29.2365625 56.81837891 -29.2365625 56.81837891 -30.98828125 56.81640625 C-34.01953125 56.3828125 -34.01953125 56.3828125 -35.86328125 55.04296875 C-37.84424846 52.19867461 -38.14697561 49.65598042 -38.16479492 46.29785156 C-38.17117477 45.47980042 -38.17755463 44.66174927 -38.18412781 43.81890869 C-38.18524063 42.9376532 -38.18635345 42.05639771 -38.1875 41.1484375 C-38.1924926 39.78135651 -38.1924926 39.78135651 -38.19758606 38.38665771 C-38.20264999 36.45667017 -38.20499455 34.52667387 -38.20483398 32.59667969 C-38.20701254 29.65805409 -38.22515195 26.71980878 -38.24414062 23.78125 C-38.24707632 21.90364711 -38.24905994 20.02604245 -38.25 18.1484375 C-38.25718552 17.27527893 -38.26437103 16.40212036 -38.27177429 15.50250244 C-38.25296372 10.42383152 -37.81565294 6.15720323 -36.01953125 1.3828125 C-33.13537242 -0.05926691 -30.60231597 0.28886363 -27.39453125 0.3203125 C-26.20601562 0.32933594 -25.0175 0.33835937 -23.79296875 0.34765625 C-22.87773438 0.35925781 -21.9625 0.37085938 -21.01953125 0.3828125 C-20.35953125 1.7028125 -19.69953125 3.0228125 -19.01953125 4.3828125 C-18.46265625 4.021875 -17.90578125 3.6609375 -17.33203125 3.2890625 C-11.3327307 -0.35916081 -7.01243277 -2.14306456 0 0 Z " fill="#7D28FA" transform="translate(143.01953125,413.6171875)"/>
<path d="M0 0 C5.32133557 3.16613912 8.67000312 8.13953367 10.3203125 14.0546875 C11.18319979 19.94802412 10.62512207 25.35328483 7.625 30.5625 C3.39455739 35.35030114 -1.15428593 39.10005654 -7.62109375 39.80859375 C-13.74923485 40.11639992 -18.38239288 39.21588847 -23.375 35.5625 C-28.52326444 30.8375373 -30.94293008 26.30710599 -31.75 19.3125 C-31.12382221 13.05072208 -29.31402005 6.82157953 -24.4375 2.5625 C-17.12509392 -2.21294887 -8.23707379 -3.47575946 0 0 Z " fill="#FC8914" transform="translate(265.375,101.4375)"/>
<path d="M0 0 C4.90609677 3.27073118 7.70164224 6.55932013 9.3125 12.1875 C10.19491549 17.27638155 9.3757484 21.39561837 6.8125 25.875 C2.77412254 30.40748482 -0.72608713 32.66640569 -6.875 33.1875 C-11.6362546 33.10858418 -15.34186044 31.66330186 -19.1875 28.875 C-22.97962818 24.11053126 -24.56654396 20.20231879 -24.46484375 14.06640625 C-23.77171455 8.58970932 -21.3902364 4.83228 -17.125 1.4375 C-11.38702175 -1.61461609 -6.09657161 -2.15173116 0 0 Z " fill="#FC8913" transform="translate(221.1875,200.125)"/>
<path d="M0 0 C6.77507702 5.7485502 6.77507702 5.7485502 7.30078125 11.23828125 C7.41915422 15.74268441 7.38425059 19.0126549 5.5625 23.1875 C1.71844032 27.12766117 -1.87901498 29.51400579 -7.46875 29.9453125 C-11.5909459 29.7342362 -14.99814637 29.15101109 -18.375 26.6875 C-21.86277846 22.68931493 -23.78983609 19.02936936 -24.03125 13.66796875 C-23.57729894 7.73255861 -21.20236395 3.80896723 -16.875 -0.125 C-11.42966738 -2.21044654 -5.37947213 -2.28913708 0 0 Z " fill="#FB8A15" transform="translate(304.9375,91.25)"/>
<path d="M0 0 C4.18839832 2.01763704 6.51523777 4.85096836 8.34375 9.09375 C9.61122361 13.93168848 9.27559091 18.75604493 6.9921875 23.23828125 C4.03553631 27.19685411 0.60991442 29.05225602 -4.05859375 30.375 C-10.03395995 30.62527712 -14.49276228 29.39728011 -19.05859375 25.375 C-22.59696235 20.42128396 -22.91232861 15.26481129 -22.05859375 9.375 C-17.62560303 0.16801928 -9.596655 -2.91359545 0 0 Z " fill="#FB8A16" transform="translate(217.05859375,90.625)"/>
<path d="M0 0 C4.46663013 2.4544783 6.37622801 5.68532722 7.8125 10.5 C8.44620621 15.75070862 7.70047296 19.07177479 4.8125 23.5 C1.08578845 27.27762291 -2.11193319 29.34335345 -7.5 29.75 C-13.08055951 29.37165698 -15.98592471 27.64817194 -20 23.8125 C-23.37859237 18.69634584 -23.5118971 14.851879 -22.6875 8.875 C-20.75909025 4.53607807 -18.11234531 2.10490847 -14.1875 -0.5 C-9.16626084 -2.17374639 -4.86517993 -2.06044001 0 0 Z " fill="#FC8A13" transform="translate(304.1875,202.5)"/>
<path d="M0 0 C2.10388569 -0.05402274 4.20816714 -0.09280256 6.3125 -0.125 C8.07013672 -0.15980469 8.07013672 -0.15980469 9.86328125 -0.1953125 C13 0 13 0 16 2 C17.16059317 5.48177952 17.13415056 8.21199939 17.14526367 11.88647461 C17.14862228 12.5827446 17.1519809 13.27901459 17.15544128 13.99638367 C17.1649414 16.2983885 17.16689387 18.60032053 17.16796875 20.90234375 C17.17118179 22.50273163 17.17454589 24.10311921 17.17805481 25.70350647 C17.18404358 29.05844809 17.18589495 32.41336396 17.18530273 35.76831055 C17.18520108 40.06694447 17.19885769 44.36541335 17.21607494 48.66400814 C17.22719356 51.96941384 17.22922199 55.27477961 17.22869301 58.5802021 C17.22987316 60.16503023 17.23429694 61.74985939 17.24202538 63.33466911 C17.25182333 65.55127403 17.24894823 67.76752016 17.24291992 69.98413086 C17.24434494 71.24527206 17.24576996 72.50641327 17.24723816 73.80577087 C17.01314997 76.83010708 16.69519039 78.51940923 15 81 C12.23547967 82.38226016 9.9538637 82.09525387 6.875 82.0625 C5.77929688 82.05347656 4.68359375 82.04445313 3.5546875 82.03515625 C2.29011719 82.01775391 2.29011719 82.01775391 1 82 C1 81.67 1 81.34 1 81 C6.94 80.505 6.94 80.505 13 80 C14.17917957 76.46246128 14.16093747 73.60111832 14.20532227 69.86645508 C14.22017166 68.78315163 14.22017166 68.78315163 14.23532104 67.67796326 C14.26689759 65.29185255 14.29167822 62.90572194 14.31640625 60.51953125 C14.3369791 58.86471541 14.35797566 57.20990479 14.37937927 55.55509949 C14.43456575 51.20024847 14.48399013 46.84535029 14.53222656 42.49041748 C14.58246658 38.04630335 14.63813959 33.60225768 14.69335938 29.15820312 C14.80089908 20.43885997 14.90235335 11.71945953 15 3 C11.49314042 2.04388451 8.39428019 1.89788826 4.75 1.9375 C3.67234375 1.94652344 2.5946875 1.95554687 1.484375 1.96484375 C0.25460938 1.98224609 0.25460938 1.98224609 -1 2 C-0.67 1.34 -0.34 0.68 0 0 Z " fill="#7339D1" transform="translate(254,388)"/>
<path d="M0 0 C0 2 0 2 -1.46875 3.48046875 C-2.47421875 4.32544922 -2.47421875 4.32544922 -3.5 5.1875 C-4.5828125 6.10789063 -4.5828125 6.10789063 -5.6875 7.046875 C-6.450625 7.69140625 -7.21375 8.3359375 -8 9 C-9.50251281 10.30962265 -11.00265323 11.62197391 -12.5 12.9375 C-14.25 14.46875 -14.25 14.46875 -16 16 C-18.1519437 12.77208445 -18.20086443 11.71599191 -18 8 C-18.94875 8.165 -19.8975 8.33 -20.875 8.5 C-25.5763877 9.18541792 -30.26003286 9.08583441 -35 9 C-31.64243855 7.12722797 -28.31195068 6.20244236 -24.58984375 5.2734375 C-23.35298828 4.9640625 -22.11613281 4.6546875 -20.84179688 4.3359375 C-20.20105225 4.17834961 -19.56030762 4.02076172 -18.90014648 3.85839844 C-16.9389857 3.37536593 -14.98017902 2.88355129 -13.02148438 2.390625 C-3.3936942 0 -3.3936942 0 0 0 Z " fill="#782FEC" transform="translate(310,236)"/>
<path d="M0 0 C0.33 0 0.66 0 1 0 C1.33 16.17 1.66 32.34 2 49 C2.66 49.33 3.32 49.66 4 50 C4 50.66 4 51.32 4 52 C4.99 51.34 5.98 50.68 7 50 C9.26171875 50.2421875 9.26171875 50.2421875 11.6875 50.875 C12.49574219 51.07867187 13.30398437 51.28234375 14.13671875 51.4921875 C14.75160156 51.65976562 15.36648437 51.82734375 16 52 C16 52.33 16 52.66 16 53 C13.89646505 53.0810206 11.79204048 53.13919907 9.6875 53.1875 C8.51574219 53.22230469 7.34398438 53.25710938 6.13671875 53.29296875 C3 53 3 53 1.14453125 51.67578125 C-0.82043934 48.79874241 -1.12568437 46.26137694 -1.12939453 42.88330078 C-1.13254669 42.05879425 -1.13569885 41.23428772 -1.13894653 40.38479614 C-1.1369223 39.49726654 -1.13489807 38.60973694 -1.1328125 37.6953125 C-1.13376923 36.77918182 -1.13472595 35.86305115 -1.13571167 34.91915894 C-1.13639223 32.98077323 -1.13454656 31.04238524 -1.13037109 29.10400391 C-1.12503336 26.14350223 -1.13031395 23.18315312 -1.13671875 20.22265625 C-1.13605771 18.33854133 -1.134776 16.45442651 -1.1328125 14.5703125 C-1.13483673 13.68683136 -1.13686096 12.80335022 -1.13894653 11.89309692 C-1.12341164 7.79858666 -1.03245484 3.9934574 0 0 Z " fill="#663EC8" transform="translate(106,417)"/>
<path d="M0 0 C0.33 0 0.66 0 1 0 C1.042721 1.66611905 1.04063832 3.33382885 1 5 C-0.93043686 6.93043686 -3.77524802 6.13256219 -6.33984375 6.13671875 C-7.17644531 6.13285156 -8.01304687 6.12898437 -8.875 6.125 C-9.70386719 6.12886719 -10.53273437 6.13273438 -11.38671875 6.13671875 C-12.18464844 6.13542969 -12.98257813 6.13414062 -13.8046875 6.1328125 C-14.53671387 6.13168457 -15.26874023 6.13055664 -16.02294922 6.12939453 C-18 6 -18 6 -21 5 C-23.06145107 4.931009 -25.12501401 4.91532273 -27.1875 4.9375 C-28.27417969 4.94652344 -29.36085937 4.95554688 -30.48046875 4.96484375 C-31.31191406 4.97644531 -32.14335937 4.98804688 -33 5 C-32.34 5.33 -31.68 5.66 -31 6 C-31 6.66 -31 7.32 -31 8 C-30.0925 8.2475 -29.185 8.495 -28.25 8.75 C-24.89648511 10.03981342 -23.32291764 11.31971042 -21 14 C-25.71609699 14 -28.82748271 11.1582353 -32.6875 8.625 C-33.48478516 8.11710938 -34.28207031 7.60921875 -35.10351562 7.0859375 C-35.85697266 6.59609375 -36.61042969 6.10625 -37.38671875 5.6015625 C-38.07983154 5.15119629 -38.77294434 4.70083008 -39.48706055 4.23681641 C-39.98633057 3.82866699 -40.48560059 3.42051758 -41 3 C-41 2.34 -41 1.68 -41 1 C-27.47 1.99 -13.94 2.98 0 4 C0 2.68 0 1.36 0 0 Z " fill="#7534DB" transform="translate(235,237)"/>
<path d="M0 0 C0.66 0.99 1.32 1.98 2 3 C1.67 3.66 1.34 4.32 1 5 C0.34 4.67 -0.32 4.34 -1 4 C-1.33 7.3 -1.66 10.6 -2 14 C-1.34 14 -0.68 14 0 14 C-0.04125 14.928125 -0.0825 15.85625 -0.125 16.8125 C-0.27136339 20.15809719 -0.27136339 20.15809719 2 23 C1.7578125 25.48046875 1.7578125 25.48046875 1.125 28.1875 C0.92132813 29.08855469 0.71765625 29.98960937 0.5078125 30.91796875 C0.25644531 31.94857422 0.25644531 31.94857422 0 33 C-2 32 -2 32 -3.1015625 29.45703125 C-4.14557606 25.43984863 -4.38235298 21.81941262 -4.375 17.6875 C-4.37628906 16.93927979 -4.37757813 16.19105957 -4.37890625 15.42016602 C-4.26481068 9.45024514 -3.03154965 5.21047596 0 0 Z " fill="#F78E20" transform="translate(173,141)"/>
<path d="M0 0 C0.99 0 1.98 0 3 0 C3.66 0.99 4.32 1.98 5 3 C6.5778125 2.62875 6.5778125 2.62875 8.1875 2.25 C12 2 12 2 14.1875 3.8125 C18.56622004 7.21817114 23.59595258 7.34496395 29 8 C29 8.33 29 8.66 29 9 C19.15133666 9.38316125 10.31966432 9.51097845 1.875 3.9375 C0 2 0 2 0 0 Z " fill="#762DEF" transform="translate(286,463)"/>
<path d="M0 0 C3.375 -0.125 3.375 -0.125 7 0 C8.33333333 1.33333333 9.66666667 2.66666667 11 4 C9.41371037 9.51596168 7.8584239 13.62711958 4 18 C3.67 18.99 3.34 19.98 3 21 C0.69 20.67 -1.62 20.34 -4 20 C-4 19.34 -4 18.68 -4 18 C-3.44570312 17.82984375 -2.89140625 17.6596875 -2.3203125 17.484375 C2.09610888 16.0867744 2.09610888 16.0867744 5.5625 13.1875 C6.16860129 10.15699357 5.82160053 7.9704019 5 5 C3.64555699 3.22809091 3.64555699 3.22809091 2 2 C1.34 1.34 0.68 0.68 0 0 Z " fill="#7C2CF3" transform="translate(244,433)"/>
<path d="M0 0 C0.33 0 0.66 0 1 0 C1.2396943 5.63281599 0.38529821 10.54538831 -1 16 C-1.66 16 -2.32 16 -3 16 C-2.938125 17.5159375 -2.938125 17.5159375 -2.875 19.0625 C-3.08118093 25.55719917 -5.42855034 31.36836277 -7.625 37.4375 C-8.07101563 38.67371094 -8.51703125 39.90992188 -8.9765625 41.18359375 C-9.48316406 42.57771484 -9.48316406 42.57771484 -10 44 C-10.98780091 40.90498627 -10.98104119 38.98886536 -10.10375977 35.87402344 C-9.77330406 34.67323151 -9.77330406 34.67323151 -9.43617249 33.44818115 C-9.19039963 32.59387512 -8.94462677 31.73956909 -8.69140625 30.859375 C-8.32304909 29.53610199 -8.32304909 29.53610199 -7.94725037 28.18609619 C-7.16146516 25.37141114 -6.36218048 22.56076524 -5.5625 19.75 C-5.02710077 17.8413964 -4.49258478 15.93254479 -3.95898438 14.0234375 C-2.64955117 9.34601981 -1.32799888 4.67217889 0 0 Z " fill="#7738D9" transform="translate(226,270)"/>
<path d="M0 0 C2.97 0.495 2.97 0.495 6 1 C5.67 1.99 5.34 2.98 5 4 C7.64 3.67 10.28 3.34 13 3 C12.34 4.65 11.68 6.3 11 8 C11.99 8 12.98 8 14 8 C14 8.66 14 9.32 14 10 C20.30735307 11.00344253 26.63440427 11.50873071 33 12 C33 12.33 33 12.66 33 13 C21.48955969 13.65878514 12.71271792 12.54638671 3.8125 4.8125 C2.50557301 3.57881586 1.22165369 2.31817942 0 1 C0 0.67 0 0.34 0 0 Z " fill="#F18B24" transform="translate(303,303)"/>
<path d="M0 0 C0.33 0 0.66 0 1 0 C1.40978845 5.05405757 0.19084111 9.17539579 -1.19921875 13.96484375 C-2.50449177 18.91214684 -3.24987374 23.94326651 -4 29 C-4.99 29.33 -5.98 29.66 -7 30 C-7 31.65 -7 33.3 -7 35 C-7.99 35.495 -7.99 35.495 -9 36 C-8.39518257 31.18565327 -7.46018445 26.6435159 -6.15234375 21.97265625 C-5.88811363 21.02198524 -5.88811363 21.02198524 -5.61854553 20.05210876 C-5.0622973 18.05440054 -4.50001518 16.05845153 -3.9375 14.0625 C-3.55623803 12.697378 -3.17537499 11.33214452 -2.79492188 9.96679688 C-1.86788425 6.64323138 -0.93543233 3.32121386 0 0 Z " fill="#7635DF" transform="translate(250,183)"/>
<path d="M0 0 C0.66 0 1.32 0 2 0 C0.5080378 5.30475449 -3.08475978 9.25821979 -7 13 C-9.2265625 14.23828125 -9.2265625 14.23828125 -11 15 C-12.4783226 12.04335481 -12.06032783 9.25770263 -12 6 C-5.25 5.875 -5.25 5.875 -3 7 C-2.87625 6.21625 -2.7525 5.4325 -2.625 4.625 C-2 2 -2 2 0 0 Z " fill="#FA8917" transform="translate(333,172)"/>
<path d="M0 0 C2.80538708 5.17822887 4.09761414 10.86052511 5.6875 16.5 C6.02072266 17.64082031 6.35394531 18.78164062 6.69726562 19.95703125 C7.00728516 21.05402344 7.31730469 22.15101563 7.63671875 23.28125 C8.06537231 24.78268555 8.06537231 24.78268555 8.50268555 26.31445312 C8.99863811 28.99264565 8.9031069 30.46512174 8 33 C7.37379084 31.60470871 6.74909369 30.20873879 6.125 28.8125 C5.60292969 27.64654297 5.60292969 27.64654297 5.0703125 26.45703125 C4.71710938 25.64621094 4.36390625 24.83539063 4 24 C3.63777344 23.19304687 3.27554687 22.38609375 2.90234375 21.5546875 C1.90764824 18.73853658 1.62827058 16.28770924 1.4375 13.3125 C1.2525248 9.51219962 1.2525248 9.51219962 0 6 C-0.039992 4.00039988 -0.04346799 1.99952758 0 0 Z " fill="#7432DF" transform="translate(265,212)"/>
<path d="M0 0 C0 2 0 2 -1.64453125 3.69140625 C-2.71767578 4.61759766 -2.71767578 4.61759766 -3.8125 5.5625 C-4.87404297 6.49255859 -4.87404297 6.49255859 -5.95703125 7.44140625 C-8 9 -8 9 -11 10 C-11.33 8.68 -11.66 7.36 -12 6 C-14.97 5.505 -14.97 5.505 -18 5 C-14.89370844 3.31099986 -11.84794949 2.29373333 -8.4375 1.375 C-7.48746094 1.11460937 -6.53742188 0.85421875 -5.55859375 0.5859375 C-3 0 -3 0 0 0 Z " fill="#7933E2" transform="translate(310,236)"/>
<path d="M0 0 C4.62 0 9.24 0 14 0 C14.33 0.99 14.66 1.98 15 3 C19.34184202 2.81535634 19.34184202 2.81535634 23 1 C24.68608966 0.92794489 26.37500659 0.91613932 28.0625 0.9375 C28.98160156 0.94652344 29.90070313 0.95554687 30.84765625 0.96484375 C31.55792969 0.97644531 32.26820313 0.98804688 33 1 C26.46662298 5.35558468 17.58363385 4.49783154 10 4 C6.54937386 3.25996547 3.28937502 2.27330646 0 1 C0 0.67 0 0.34 0 0 Z " fill="#7638D7" transform="translate(167,468)"/>
<path d="M0 0 C0.33 0 0.66 0 1 0 C2.42857143 8.57142857 2.42857143 8.57142857 0 12 C0.99 13.485 0.99 13.485 2 15 C1.67 15.33 1.34 15.66 1 16 C1.25075722 20.17928707 1.97501201 23.26390391 4.125 26.8125 C4.74375 27.864375 5.3625 28.91625 6 30 C5.67 30.66 5.34 31.32 5 32 C-1.77019308 22.5165616 -2.70427166 14.46510025 -1 3 C-0.67 2.01 -0.34 1.02 0 0 Z " fill="#7538DB" transform="translate(154,430)"/>
<path d="M0 0 C10.64048448 1.19981724 16.52472445 3.08500235 24 11 C23.67 11.66 23.34 12.32 23 13 C22.443125 12.505 21.88625 12.01 21.3125 11.5 C18.61837017 9.75245633 17.14624993 9.73781251 14 10 C15 7 15 7 16 5 C14.824375 4.814375 14.824375 4.814375 13.625 4.625 C9.0646674 3.83873576 4.53432907 2.92299584 0 2 C0 1.34 0 0.68 0 0 Z " fill="#7635DC" transform="translate(306,412)"/>
<path d="M0 0 C4.87311986 4.24478062 6.75015116 10.8826552 7.25390625 17.16796875 C7.25051265 19.79122093 7.18219166 22.38352532 7 25 C6.67 25 6.34 25 6 25 C5.96261719 24.443125 5.92523438 23.88625 5.88671875 23.3125 C5.40439364 17.71374576 4.16758121 13.18334636 2 8 C1.01 8.495 1.01 8.495 0 9 C-0.99 8.67 -1.98 8.34 -3 8 C-3 7.34 -3 6.68 -3 6 C-2.01 5.34 -1.02 4.68 0 4 C0 2.68 0 1.36 0 0 Z " fill="#F28D29" transform="translate(357,262)"/>
<path d="M0 0 C1 2 1 2 0.875 4.875 C0.78910157 7.9595364 0.78910157 7.9595364 2.125 10.3125 C4.75405889 12.678653 6.4808891 12.93099783 10 13 C13.31805142 11.67570727 13.31805142 11.67570727 16 10 C15.375 12.4375 15.375 12.4375 14 15 C10.64883271 16.1424434 8.3591851 16.05746962 4.875 15.5 C1.00412354 13.48041228 -0.53516397 11.06618277 -2 7 C-2.25 3.5625 -2.25 3.5625 -2 1 C-1.34 0.67 -0.68 0.34 0 0 Z " fill="#7334DC" transform="translate(357,437)"/>
<path d="M0 0 C2 2 2 2 2.3125 5.75 C2.20983342 9.78332992 1.20504614 12.56992823 -1 16 C-4.76508495 18.51005664 -7.39461609 18.0258295 -11.6875 17.625 C-12.38939453 17.56828125 -13.09128906 17.5115625 -13.81445312 17.453125 C-15.54380285 17.31195359 -17.27204088 17.15728041 -19 17 C-19 16.34 -19 15.68 -19 15 C-13.39 15 -7.78 15 -2 15 C-1.67 13.2675 -1.34 11.535 -1 9.75 C-0.814375 8.77546875 -0.62875 7.8009375 -0.4375 6.796875 C0.10303017 3.81315721 0.10303017 3.81315721 0 0 Z " fill="#7138D0" transform="translate(147,416)"/>
<path d="M0 0 C0.33 1.32 0.66 2.64 1 4 C0.05125 4.28875 -0.8975 4.5775 -1.875 4.875 C-5.05211578 5.76825109 -5.05211578 5.76825109 -7 8 C-7.144375 8.99 -7.28875 9.98 -7.4375 11 C-7.623125 11.99 -7.80875 12.98 -8 14 C-8.99 14.66 -9.98 15.32 -11 16 C-12.21284876 19.05429073 -12.21284876 19.05429073 -13 22 C-13.33 22 -13.66 22 -14 22 C-13.7412232 14.88363792 -11.49697568 10.49149915 -7 5 C-4.69191253 2.90173866 -2.76575571 1.38287786 0 0 Z " fill="#7035DA" transform="translate(291,416)"/>
<path d="M0 0 C0.99 0.33 1.98 0.66 3 1 C-5.43298416 7.74638733 -16.45624082 9.57740444 -27 10 C-27 9.34 -27 8.68 -27 8 C-26.41734375 7.96261719 -25.8346875 7.92523438 -25.234375 7.88671875 C-18.2656942 7.32790944 -11.73544035 5.84009453 -5 4 C-5 3.34 -5 2.68 -5 2 C-3.35 2 -1.7 2 0 2 C0 1.34 0 0.68 0 0 Z " fill="#7637D9" transform="translate(301,371)"/>
<path d="M0 0 C5.26078987 1.85674936 7.7310754 4.67348215 11 9 C10.67 9.66 10.34 10.32 10 11 C9.34 10.01 8.68 9.02 8 8 C5.67182036 7.63239269 3.3381615 7.29758419 1 7 C0.67 6.34 0.34 5.68 0 5 C0.99 4.67 1.98 4.34 3 4 C-1.873261 2.4087311 -5.80790596 1.78807779 -11 2 C-7.2699189 -0.48672073 -4.31824744 -0.51720454 0 0 Z " fill="#EE8D2D" transform="translate(218,199)"/>
<path d="M0 0 C0.33 1.65 0.66 3.3 1 5 C0.21753906 5.19335938 -0.56492187 5.38671875 -1.37109375 5.5859375 C-2.38300781 5.84632813 -3.39492188 6.10671875 -4.4375 6.375 C-5.95150391 6.75785156 -5.95150391 6.75785156 -7.49609375 7.1484375 C-10.15570324 7.72573954 -10.15570324 7.72573954 -11 10 C-11.66 10 -12.32 10 -13 10 C-11.21019997 5.44414539 -7.97723055 3.12984603 -3.8125 0.75 C-2 0 -2 0 0 0 Z " fill="#F38E1F" transform="translate(342,185)"/>
<path d="M0 0 C-2 2 -2 2 -4 2.9375 C-6.32131409 3.96786859 -6.32131409 3.96786859 -8 7 C-8.66 7 -9.32 7 -10 7 C-10 7.99 -10 8.98 -10 10 C-11.65 10 -13.3 10 -15 10 C-13.63310446 6.84930578 -12.14342115 4.99108226 -9.5 2.8125 C-8.8915625 2.30332031 -8.283125 1.79414062 -7.65625 1.26953125 C-4.69541941 -0.99997333 -3.51169027 -1.05350708 0 0 Z " fill="#F58B1F" transform="translate(246,43)"/>
<path d="M0 0 C0.8971875 0.309375 0.8971875 0.309375 1.8125 0.625 C-2.31759632 3.90059363 -5.31708467 4.7765725 -10.5625 4.8125 C-11.96628906 4.83376953 -11.96628906 4.83376953 -13.3984375 4.85546875 C-16.34868154 4.61168108 -18.51114112 3.85612508 -21.1875 2.625 C-16.79299027 1.25899577 -12.51604899 1.64451332 -7.96484375 1.78515625 C-4.58957459 1.59052048 -3.26849255 -0.56031301 0 0 Z " fill="#7436E2" transform="translate(250.1875,465.375)"/>
<path d="M0 0 C3.44216672 2.6598561 3.99504674 5.90288286 5 10 C5.66 10 6.32 10 7 10 C8.7265625 11.96875 8.7265625 11.96875 10.625 14.5 C11.25664062 15.3353125 11.88828125 16.170625 12.5390625 17.03125 C13.02117187 17.6809375 13.50328125 18.330625 14 19 C10.40035015 19 10.02649029 18.45850257 7.5625 16 C3.01775032 11.25304747 0 6.66183669 0 0 Z " fill="#723AD3" transform="translate(338,447)"/>
<path d="M0 0 C1.28934684 2.57869369 0.82144674 3.65999235 0.1875 6.4375 C0.01605469 7.21996094 -0.15539062 8.00242187 -0.33203125 8.80859375 C-1 11 -1 11 -3 14 C-3.66 14 -4.32 14 -5 14 C-5 16.64 -5 19.28 -5 22 C-5.33 22 -5.66 22 -6 22 C-6.36351166 14.36625504 -5.59171315 7.93556441 -1.3125 1.4375 C-0.879375 0.963125 -0.44625 0.48875 0 0 Z " fill="#783AD6" transform="translate(343,424)"/>
<path d="M0 0 C0 0.66 0 1.32 0 2 C1.65 2.33 3.3 2.66 5 3 C6.3271261 6.9813783 6.06915913 10.85045227 6 15 C5.01 15.495 5.01 15.495 4 16 C4.103125 14.783125 4.20625 13.56625 4.3125 12.3125 C4.30001411 8.80396378 4.01433029 8.02127831 1.9375 4.9375 C-0.91801692 2.65718923 -0.91801692 2.65718923 -4.625 3.0625 C-8.09325276 3.83700098 -8.09325276 3.83700098 -11 6 C-11 4.68 -11 3.36 -11 2 C-3.375 0 -3.375 0 0 0 Z " fill="#7338D6" transform="translate(369,431)"/>
<path d="M0 0 C-1.32 0.99 -2.64 1.98 -4 3 C-4.66 2.67 -5.32 2.34 -6 2 C-6.33 2.99 -6.66 3.98 -7 5 C-7.99 5 -8.98 5 -10 5 C-10 5.66 -10 6.32 -10 7 C-11.8125 8.6875 -11.8125 8.6875 -14 10 C-14.99 9.67 -15.98 9.34 -17 9 C-4.91479821 -2.4573991 -4.91479821 -2.4573991 0 0 Z " fill="#F0912A" transform="translate(193,127)"/>
<path d="M0 0 C0.66 0.33 1.32 0.66 2 1 C1.34 2.65 0.68 4.3 0 6 C0.99 6 1.98 6 3 6 C3 5.34 3 4.68 3 4 C3.66 4 4.32 4 5 4 C4.67 5.65 4.34 7.3 4 9 C2.68 9 1.36 9 0 9 C0 8.34 0 7.68 0 7 C-0.66 7 -1.32 7 -2 7 C-2.33 8.65 -2.66 10.3 -3 12 C-3.88336837 9.5332355 -4.1312406 8.36140628 -3.22265625 5.859375 C-2.83980469 5.16328125 -2.45695312 4.4671875 -2.0625 3.75 C-1.68222656 3.04359375 -1.30195313 2.3371875 -0.91015625 1.609375 C-0.60980469 1.07828125 -0.30945313 0.5471875 0 0 Z " fill="#F39022" transform="translate(327,196)"/>
<path d="M0 0 C3.07943184 4.61914775 3.41447561 8.5693067 3 14 C1.92448909 18.03316591 0.51532618 19.77362675 -3 22 C-2.34 20.02 -1.68 18.04 -1 16 C-0.34 16 0.32 16 1 16 C0.67 10.72 0.34 5.44 0 0 Z " fill="#723CD3" transform="translate(330,425)"/>
<path d="M0 0 C1.53214888 3.06429776 1.22938548 5.6165642 1 9 C-0.5 11.9375 -0.5 11.9375 -2 14 C-2.66 13.67 -3.32 13.34 -4 13 C-3.40546697 3.40546697 -3.40546697 3.40546697 0 0 Z " fill="#F28C25" transform="translate(285,206)"/>
<path d="M0 0 C4.19936589 3.74538039 6.2766211 6.73412001 8 12 C7.6875 14.4375 7.6875 14.4375 7 16 C6 15 6 15 5.9375 12.4375 C5.958125 11.633125 5.97875 10.82875 6 10 C5.360625 9.87625 4.72125 9.7525 4.0625 9.625 C3.381875 9.41875 2.70125 9.2125 2 9 C1.67 8.34 1.34 7.68 1 7 C1.33 6.01 1.66 5.02 2 4 C1.12516085 1.83284443 1.12516085 1.83284443 0 0 Z " fill="#ED8D30" transform="translate(329,136)"/>
<path d="M0 0 C1.94539023 3.52106829 3.05706819 7.1475537 4.1875 11 C4.55230469 12.216875 4.91710937 13.43375 5.29296875 14.6875 C5.94211789 17.72881752 6.11269179 19.16511645 5 22 C2.54334798 17.62075075 1.58450878 13.96832466 1 9 C0.67 8.67 0.34 8.34 0 8 C-0.14115161 5.32941149 -0.04247107 2.67567762 0 0 Z " fill="#7636D7" transform="translate(257,183)"/>
<path d="M0 0 C2.9615058 1.06429115 5.28679312 2.36183736 8 4 C8 4.66 8 5.32 8 6 C5.525 5.505 5.525 5.505 3 5 C3 4.34 3 3.68 3 3 C-0.60993172 1.86519473 -3.9842327 1.89984233 -7.75 1.9375 C-9.50570313 1.95103516 -9.50570313 1.95103516 -11.296875 1.96484375 C-12.18890625 1.97644531 -13.0809375 1.98804688 -14 2 C-9.52465243 -0.98356504 -5.24931947 -0.61337157 0 0 Z " fill="#7538DC" transform="translate(368,414)"/>
<path d="M0 0 C0.66 0 1.32 0 2 0 C3.19287411 3.87684087 4 6.91621923 4 11 C3.34 11 2.68 11 2 11 C2 10.01 2 9.02 2 8 C1.01 8 0.02 8 -1 8 C-1.33 8.99 -1.66 9.98 -2 11 C-1 3.57142857 -1 3.57142857 0 0 Z " fill="#763CD2" transform="translate(253,172)"/>
<path d="M0 0 C0.6875 1.8125 0.6875 1.8125 1 4 C-0.375 5.5625 -0.375 5.5625 -2 7 C-2.33 7.99 -2.66 8.98 -3 10 C-5.31 9.67 -7.62 9.34 -10 9 C-10 8.34 -10 7.68 -10 7 C-9.44570312 6.82984375 -8.89140625 6.6596875 -8.3203125 6.484375 C-3.74877023 5.09174014 -3.74877023 5.09174014 -0.5 1.8125 C-0.335 1.214375 -0.17 0.61625 0 0 Z " fill="#7534E1" transform="translate(250,444)"/>
<path d="M0 0 C0.99 0.66 1.98 1.32 3 2 C0.69 2 -1.62 2 -4 2 C-4.33 2.66 -4.66 3.32 -5 4 C-8 4 -11 4 -14 4 C-9.34298916 0.30650865 -5.9482875 -0.31865826 0 0 Z " fill="#F28D29" transform="translate(300,201)"/>
<path d="M0 0 C0.98484375 0.01804687 1.9696875 0.03609375 2.984375 0.0546875 C4.10585938 0.08949219 4.10585938 0.08949219 5.25 0.125 C5.25 0.455 5.25 0.785 5.25 1.125 C0.795 1.62 0.795 1.62 -3.75 2.125 C-3.75 3.115 -3.75 4.105 -3.75 5.125 C-6.39 5.455 -9.03 5.785 -11.75 6.125 C-10.81306293 3.78265733 -10.16979854 2.39977723 -8.03125 1 C-5.22351208 -0.07694057 -2.99856072 -0.0713943 0 0 Z " fill="#F39526" transform="translate(296.75,89.875)"/>
<path d="M0 0 C5.23880078 0.55145271 9.97350697 1.42922093 15 3 C15 3.33 15 3.66 15 4 C13.06280622 4.05406122 11.12518079 4.09282025 9.1875 4.125 C8.10855469 4.14820313 7.02960938 4.17140625 5.91796875 4.1953125 C3 4 3 4 0 2 C0 1.34 0 0.68 0 0 Z " fill="#7737DD" transform="translate(376,466)"/>
<path d="M0 0 C2.56694395 2.23212517 3.41457976 3.66760787 4 7 C4.06790675 9.24907152 4.08499984 11.50001605 4.0625 13.75 C4.05347656 14.92046875 4.04445313 16.0909375 4.03515625 17.296875 C4.02355469 18.18890625 4.01195312 19.0809375 4 20 C3.67 20 3.34 20 3 20 C2.67 16.04 2.34 12.08 2 8 C0.68 7.67 -0.64 7.34 -2 7 C-2 6.34 -2 5.68 -2 5 C-1.01 5 -0.02 5 1 5 C0.67 3.35 0.34 1.7 0 0 Z " fill="#F19228" transform="translate(274,53)"/>
<path d="M0 0 C1.98 0.66 3.96 1.32 6 2 C6 1.34 6 0.68 6 0 C6.66 0 7.32 0 8 0 C7 3 7 3 3.6875 4.75 C-0.97563098 6.33072237 -0.97563098 6.33072237 -4 5 C-3.525625 4.54625 -3.05125 4.0925 -2.5625 3.625 C-0.90972192 2.06741796 -0.90972192 2.06741796 0 0 Z " fill="#7634DE" transform="translate(321,465)"/>
<path d="M0 0 C0.66 0 1.32 0 2 0 C2.33 0.99 2.66 1.98 3 3 C3.66 3.33 4.32 3.66 5 4 C5 4.66 5 5.32 5 6 C5.99 5.34 6.98 4.68 8 4 C10.26171875 4.2421875 10.26171875 4.2421875 12.6875 4.875 C13.49574219 5.07867187 14.30398437 5.28234375 15.13671875 5.4921875 C15.75160156 5.65976562 16.36648437 5.82734375 17 6 C17 6.33 17 6.66 17 7 C14.89646505 7.0810206 12.79204048 7.13919907 10.6875 7.1875 C9.51574219 7.22230469 8.34398438 7.25710938 7.13671875 7.29296875 C4 7 4 7 2.125 5.625 C0.84242271 3.77238836 0.38089104 2.209168 0 0 Z " fill="#7332D7" transform="translate(105,463)"/>
<path d="M0 0 C0 0.99 0 1.98 0 3 C-0.66 3.45375 -1.32 3.9075 -2 4.375 C-2.99 5.179375 -2.99 5.179375 -4 6 C-4.33425735 8.62625139 -4.33425735 8.62625139 -4 11 C-5.98 11.33 -7.96 11.66 -10 12 C-7.29076328 6.68572797 -4.77135213 3.57851409 0 0 Z " fill="#7339D2" transform="translate(227,417)"/>
<path d="M0 0 C1.18851563 0.00902344 2.37703125 0.01804687 3.6015625 0.02734375 C4.51679687 0.03894531 5.43203125 0.05054688 6.375 0.0625 C7.035 1.3825 7.695 2.7025 8.375 4.0625 C6.725 4.0625 5.075 4.0625 3.375 4.0625 C3.375 3.0725 3.375 2.0825 3.375 1.0625 C-2.68764222 1.72514086 -2.68764222 1.72514086 -8.625 3.0625 C-8.625 2.4025 -8.625 1.7425 -8.625 1.0625 C-5.74084117 -0.37957941 -3.20778472 -0.03144887 0 0 Z " fill="#773ADB" transform="translate(115.625,413.9375)"/>
<path d="M0 0 C0.66 0.33 1.32 0.66 2 1 C2.85792053 3.97855507 3.15681685 6.90692285 3 10 C1.0625 12.5625 1.0625 12.5625 -1 14 C-1.33 13.01 -1.66 12.02 -2 11 C-0.68 10.34 0.64 9.68 2 9 C2 7.68 2 6.36 2 5 C1.01 5 0.02 5 -1 5 C-0.67 3.35 -0.34 1.7 0 0 Z " fill="#7037D5" transform="translate(203,455)"/>
<path d="M0 0 C0.33 0.99 0.66 1.98 1 3 C0.34 3 -0.32 3 -1 3 C-1 3.99 -1 4.98 -1 6 C-0.01 6 0.98 6 2 6 C2 6.66 2 7.32 2 8 C-1.79588866 7.45773019 -3.47211993 5.79872437 -6 3 C-2.25 0 -2.25 0 0 0 Z " fill="#F18E25" transform="translate(166,305)"/>
<path d="M0 0 C4.62 0 9.24 0 14 0 C14.33 0.99 14.66 1.98 15 3 C11.02840314 4.08056059 8.57446843 3.85815614 4.6875 2.5625 C3.36298828 2.13130859 3.36298828 2.13130859 2.01171875 1.69140625 C1.34785156 1.46324219 0.68398437 1.23507812 0 1 C0 0.67 0 0.34 0 0 Z " fill="#7331E4" transform="translate(167,468)"/>
<path d="M0 0 C0.99 0 1.98 0 3 0 C3.33 1.32 3.66 2.64 4 4 C7.3 4.66 10.6 5.32 14 6 C14 6.66 14 7.32 14 8 C9.4424189 7.45743082 5.92730624 6.40993792 2 4 C0.625 1.8125 0.625 1.8125 0 0 Z " fill="#6B34DC" transform="translate(286,463)"/>
<path d="M0 0 C1.79633773 6.1993911 -0.16697933 12.01213249 -2 18 C-2.66 18 -3.32 18 -4 18 C-3.41632611 11.69632197 -1.95928381 6.01339937 0 0 Z " fill="#7638DC" transform="translate(209,332)"/>
<path d="M0 0 C3.5218253 1.95656961 6.34442785 3.95100975 9 7 C9 7.66 9 8.32 9 9 C7.68 9 6.36 9 5 9 C5 8.34 5 7.68 5 7 C4.34 7 3.68 7 3 7 C2.87625 6.360625 2.7525 5.72125 2.625 5.0625 C2.315625 4.0415625 2.315625 4.0415625 2 3 C1.34 2.67 0.68 2.34 0 2 C0 1.34 0 0.68 0 0 Z " fill="#EC8C32" transform="translate(369,187)"/>
<path d="M0 0 C3.39417765 3.12621626 5.6062718 5.56541027 7 10 C6.01 9.67 5.02 9.34 4 9 C4 8.01 4 7.02 4 6 C3.01 6.33 2.02 6.66 1 7 C1 6.34 1 5.68 1 5 C0.34 5 -0.32 5 -1 5 C-0.67 3.35 -0.34 1.7 0 0 Z " fill="#F28C25" transform="translate(227,135)"/>
<path d="M0 0 C0.33 0 0.66 0 1 0 C1.31364748 5.95930219 0.80867326 9.70673117 -2 15 C-2.99 15.495 -2.99 15.495 -4 16 C-2.68 10.72 -1.36 5.44 0 0 Z " fill="#7737DD" transform="translate(214,314)"/>
<path d="M0 0 C0.33 0.66 0.66 1.32 1 2 C1.99 2.33 2.98 2.66 4 3 C0.86501708 4.85776765 -1.37471432 5.20140476 -5 5 C-4.1875 3.0625 -4.1875 3.0625 -3 1 C-2.01 0.67 -1.02 0.34 0 0 Z " fill="#F68B22" transform="translate(163,244)"/>
<path d="M0 0 C4.95 0.33 9.9 0.66 15 1 C15 1.33 15 1.66 15 2 C11.7 2.33 8.4 2.66 5 3 C5.33 3.66 5.66 4.32 6 5 C3.5625 4.1875 3.5625 4.1875 1 3 C0.67 2.01 0.34 1.02 0 0 Z " fill="#7141BC" transform="translate(194,238)"/>
<path d="M0 0 C0.99 0.33 1.98 0.66 3 1 C3 1.99 3 2.98 3 4 C3.33 3.34 3.66 2.68 4 2 C4.66 2 5.32 2 6 2 C5.95875 2.763125 5.9175 3.52625 5.875 4.3125 C5.77919176 7.22718416 5.77919176 7.22718416 8 10 C3.79236776 8.4972742 2.1972242 5.76667005 0 2 C0 1.34 0 0.68 0 0 Z " fill="#F08E25" transform="translate(120,232)"/>
<path d="M0 0 C3.53647504 1.67517239 4.7911563 2.49280817 6.3125 6.1875 C6.539375 7.115625 6.76625 8.04375 7 9 C5 9 5 9 3.5 7.75 C1.43845118 5.34485972 0 3.22047757 0 0 Z " fill="#F39822" transform="translate(304,203)"/>
<path d="M0 0 C5.41390868 0.46671627 9.20517932 1.24297811 14 4 C10.30962722 5.37095624 8.29116165 4.60010967 4.75 3.0625 C3.85796875 2.68222656 2.9659375 2.30195313 2.046875 1.91015625 C1.37140625 1.60980469 0.6959375 1.30945313 0 1 C0 0.67 0 0.34 0 0 Z " fill="#7439D7" transform="translate(208,374)"/>
<path d="M0 0 C0.99 0.33 1.98 0.66 3 1 C3 1.66 3 2.32 3 3 C3.66 3 4.32 3 5 3 C5 3.66 5 4.32 5 5 C5.66 5 6.32 5 7 5 C7.33 6.65 7.66 8.3 8 10 C3.92236229 7.13463296 1.97322935 4.56958375 0 0 Z " fill="#F08D2A" transform="translate(152,298)"/>
<path d="M0 0 C0.66 0 1.32 0 2 0 C2 0.99 2 1.98 2 3 C2.66 3.33 3.32 3.66 4 4 C3.34 6.31 2.68 8.62 2 11 C1.67 11 1.34 11 1 11 C1.04125 10.278125 1.0825 9.55625 1.125 8.8125 C0.99078695 5.79270631 0.24829381 3.73064271 -1 1 C-0.67 0.67 -0.34 0.34 0 0 Z " fill="#F98B1F" transform="translate(360,284)"/>
<path d="M0 0 C0.33 1.98 0.66 3.96 1 6 C-2.37503669 4.8141763 -4.64722731 3.72426311 -7 1 C-2.25 0 -2.25 0 0 0 Z " fill="#7430E3" transform="translate(221,251)"/>
<path d="M0 0 C0.33 0 0.66 0 1 0 C2.43680971 6.13909603 1.32637691 10.20377279 -1 16 C-1.33 16 -1.66 16 -2 16 C-2.042721 14.33388095 -2.04063832 12.66617115 -2 11 C-1.67 10.67 -1.34 10.34 -1 10 C-0.76712992 8.31816052 -0.58735834 6.6287584 -0.4375 4.9375 C-0.35371094 4.01839844 -0.26992187 3.09929687 -0.18359375 2.15234375 C-0.12300781 1.44207031 -0.06242188 0.73179687 0 0 Z " fill="#EA8830" transform="translate(229,210)"/>
<path d="M0 0 C0.66 0 1.32 0 2 0 C0.6062718 4.43458973 -1.60582235 6.87378374 -5 10 C-5 9.01 -5 8.02 -5 7 C-4.34 7 -3.68 7 -3 7 C-2.87625 6.21625 -2.7525 5.4325 -2.625 4.625 C-2 2 -2 2 0 0 Z " fill="#ED8F31" transform="translate(333,172)"/>
<path d="M0 0 C2.31 0 4.62 0 7 0 C7.625 1.8125 7.625 1.8125 8 4 C7.01 5.485 7.01 5.485 6 7 C5.62875 6.1028125 5.62875 6.1028125 5.25 5.1875 C3.83629988 2.71352479 2.34944617 1.56629745 0 0 Z " fill="#7732E4" transform="translate(244,433)"/>
<path d="M0 0 C2.49361571 1.20381448 4.68143083 2.45428722 7 4 C8.9896995 4.39013716 10.99019869 4.73202649 13 5 C11.26171875 6.10546875 11.26171875 6.10546875 9 7 C6.89453125 6.42578125 6.89453125 6.42578125 4.8125 5.3125 C4.11769531 4.95800781 3.42289063 4.60351562 2.70703125 4.23828125 C1 3 1 3 0 0 Z " fill="#F4A81F" transform="translate(201,226)"/>
<path d="M0 0 C0.66 0 1.32 0 2 0 C1.56179109 4.55737263 1.14958831 7.57653445 -2 11 C-1.125 3.375 -1.125 3.375 0 0 Z " fill="#F28E27" transform="translate(381,218)"/>
<path d="M0 0 C3.77545388 1.09068668 6.47043472 1.9083091 9 5 C6.69 5.33 4.38 5.66 2 6 C2.33 4.68 2.66 3.36 3 2 C2.01 2 1.02 2 0 2 C0 1.34 0 0.68 0 0 Z " fill="#F38D24" transform="translate(162,185)"/>
<path d="M0 0 C0.66 0.33 1.32 0.66 2 1 C1.835 1.78375 1.67 2.5675 1.5 3.375 C0.9376293 5.88208039 0.9376293 5.88208039 1 8 C-1.475 7.01 -1.475 7.01 -4 6 C-2.84826645 3.53199953 -1.95216435 1.95216435 0 0 Z " fill="#F18D2B" transform="translate(281,132)"/>
<path d="M0 0 C0 0.66 0 1.32 0 2 C-0.99 2 -1.98 2 -3 2 C-3 2.99 -3 3.98 -3 5 C-4.32 5 -5.64 5 -7 5 C-7 5.66 -7 6.32 -7 7 C-7.66 7 -8.32 7 -9 7 C-7.4576387 2.93377477 -4.5679954 0 0 0 Z " fill="#F29229" transform="translate(248,101)"/>
<path d="M0 0 C2.31 1.98 4.62 3.96 7 6 C6.01 6.495 6.01 6.495 5 7 C2.375 6.0625 2.375 6.0625 0 5 C0 3.35 0 1.7 0 0 Z " fill="#7233DD" transform="translate(198,416)"/>
<path d="M0 0 C0.99 0.33 1.98 0.66 3 1 C-0.65333143 3.63379708 -3.48521602 5.46884894 -8 6 C-7.67 5.34 -7.34 4.68 -7 4 C-6.34 4 -5.68 4 -5 4 C-5 3.34 -5 2.68 -5 2 C-3.35 2 -1.7 2 0 2 C0 1.34 0 0.68 0 0 Z " fill="#EC9132" transform="translate(369,237)"/>
<path d="M0 0 C0.33 0 0.66 0 1 0 C0.88541307 1.43836751 0.75790884 2.87570966 0.625 4.3125 C0.55539062 5.11300781 0.48578125 5.91351563 0.4140625 6.73828125 C0 9 0 9 -2 12 C-2.05395478 10.37536158 -2.09277195 8.75021459 -2.125 7.125 C-2.14820313 6.22007813 -2.17140625 5.31515625 -2.1953125 4.3828125 C-2 2 -2 2 0 0 Z " fill="#F18E2A" transform="translate(275,118)"/>
<path d="M0 0 C-2.49276563 2.49276563 -4.63729479 3.03922708 -8 4 C-8.99 4 -9.98 4 -11 4 C-4.45754717 -1.33726415 -4.45754717 -1.33726415 0 0 Z " fill="#F29327" transform="translate(246,43)"/>
<path d="M0 0 C0 0.66 0 1.32 0 2 C-2.5 3.625 -2.5 3.625 -5 5 C-5 4.34 -5 3.68 -5 3 C-6.65 3 -8.3 3 -10 3 C-6.59538535 1.23899242 -3.90650339 0 0 0 Z " fill="#713FC5" transform="translate(310,236)"/>
<path d="M0 0 C-3.85756507 2.15305957 -6.55129785 3.39253254 -11 3 C-9.08400609 0.55178556 -8.02756971 0.00675177 -4.9375 -0.75 C-2 -1 -2 -1 0 0 Z " fill="#EA862F" transform="translate(306,229)"/>
<path d="M0 0 C4.55737263 0.43820891 7.57653445 0.85041169 11 4 C9.02 4.33 7.04 4.66 5 5 C5 4.34 5 3.68 5 3 C2.525 2.01 2.525 2.01 0 1 C0 0.67 0 0.34 0 0 Z " fill="#F28D28" transform="translate(357,183)"/>
<path d="M0 0 C0.33 1.32 0.66 2.64 1 4 C0.01 4 -0.98 4 -2 4 C-2.28875 4.639375 -2.5775 5.27875 -2.875 5.9375 C-4 8 -4 8 -6 9 C-5.52797514 4.75177626 -3.03344482 2.80010291 0 0 Z " fill="#7A2CF4" transform="translate(228,417)"/>
<path d="M0 0 C0 0.99 0 1.98 0 3 C-0.928125 3.45375 -1.85625 3.9075 -2.8125 4.375 C-6.03921389 5.9421633 -6.03921389 5.9421633 -9 8 C-7.47364599 4.11473526 -4.49771687 0 0 0 Z " fill="#EC8F38" transform="translate(165,259)"/>
<path d="M0 0 C4.10801767 1.18676066 5.89448334 1.89448334 9 5 C4.545 4.01 4.545 4.01 0 3 C0 2.01 0 1.02 0 0 Z " fill="#EE8B2E" transform="translate(191,257)"/>
<path d="M0 0 C0.66 0.33 1.32 0.66 2 1 C0.71186658 1.83878455 -0.58063256 2.67086783 -1.875 3.5 C-2.59429687 3.9640625 -3.31359375 4.428125 -4.0546875 4.90625 C-6 6 -6 6 -8 6 C-7 3 -7 3 -3.5625 1.25 C-2.386875 0.8375 -1.21125 0.425 0 0 Z " fill="#F08B2A" transform="translate(319,249)"/>
<path d="M0 0 C0.99 0 1.98 0 3 0 C1.25 5.75 1.25 5.75 -1 8 C-1.625 5.125 -1.625 5.125 -2 2 C-1.34 1.34 -0.68 0.68 0 0 Z " fill="#F18D2D" transform="translate(274,74)"/>
<path d="M0 0 C2.97 0.495 2.97 0.495 6 1 C6.144375 1.61875 6.28875 2.2375 6.4375 2.875 C6.93152225 5.03258322 6.93152225 5.03258322 8 7 C4.2047869 5.50902342 2.38957269 3.24299151 0 0 Z " fill="#EF8A2E" transform="translate(303,303)"/>
<path d="M0 0 C5.875 4.625 5.875 4.625 7 8 C6.01 8.495 6.01 8.495 5 9 C4.67 8.01 4.34 7.02 4 6 C3.01 5.67 2.02 5.34 1 5 C0.67 3.35 0.34 1.7 0 0 Z " fill="#EA8939" transform="translate(200,262)"/>
<path d="M0 0 C1.24546405 2.49092811 0.7767578 3.41080733 0 6 C-1.65 6.33 -3.3 6.66 -5 7 C-3.70700306 4.11562221 -2.34058637 2.12780579 0 0 Z " fill="#E88E33" transform="translate(127,191)"/>
<path d="M0 0 C1.17539996 0.92652701 2.34010577 1.86663387 3.5 2.8125 C4.1496875 3.33457031 4.799375 3.85664063 5.46875 4.39453125 C7 6 7 6 7 9 C0.70535714 4.17857143 0.70535714 4.17857143 0 0 Z " fill="#E68E34" transform="translate(171,190)"/>
<path d="M0 0 C0.33 0.99 0.66 1.98 1 3 C1.99 3.33 2.98 3.66 4 4 C3.01 4.99 2.02 5.98 1 7 C0.01 6.67 -0.98 6.34 -2 6 C-1.34 4.02 -0.68 2.04 0 0 Z " fill="#F58E26" transform="translate(323,180)"/>
<path d="M0 0 C2.12046792 3.53411321 2.53199289 6.94393835 3 11 C1.5 10 1.5 10 0 8 C-0.27345479 5.28153765 -0.13491285 2.74322801 0 0 Z " fill="#7636D8" transform="translate(281,270)"/>
<path d="M0 0 C1.32 0 2.64 0 4 0 C4 0.66 4 1.32 4 2 C4.99 2 5.98 2 7 2 C7.33 2.99 7.66 3.98 8 5 C2.25 3.375 2.25 3.375 0 0 Z " fill="#EB8F35" transform="translate(129,243)"/>
<path d="M0 0 C0.33 0 0.66 0 1 0 C1.36923077 7.50769231 1.36923077 7.50769231 -0.5 10 C-0.995 10.33 -1.49 10.66 -2 11 C-1 3.57142857 -1 3.57142857 0 0 Z " fill="#7737D8" transform="translate(238,226)"/>
<path d="M0 0 C2 1.1875 2 1.1875 4 3 C4.25 5.6875 4.25 5.6875 4 8 C1.10067643 5.60490662 0.49831724 3.68754757 0 0 Z " fill="#F28B29" transform="translate(235,125)"/>
</svg>
